<?xml version="1.0" standalone="no"?>
<!DOCTYPE svg PUBLIC "-//W3C//DTD SVG 20010904//EN"
 "http://www.w3.org/TR/2001/REC-SVG-20010904/DTD/svg10.dtd">
<svg version="1.0" xmlns="http://www.w3.org/2000/svg"
 width="32.000000pt" height="32.000000pt" viewBox="0 0 32.000000 32.000000"
 preserveAspectRatio="xMidYMid meet">
<metadata>
Created by potrace 1.16, written by Peter Selinger 2001-2019
</metadata>
<g transform="translate(0.000000,32.000000) scale(0.100000,-0.100000)"
fill="#000000" stroke="none">
<path d="M90 230 c0 -17 -7 -47 -15 -67 -12 -29 -13 -38 -3 -45 7 -4 16 -8 20
-8 3 0 20 -12 37 -26 l31 -26 31 26 c17 14 34 26 37 26 4 0 13 4 20 8 10 7 9
16 -3 45 -8 20 -15 50 -15 67 0 37 -17 39 -47 3 l-23 -28 -21 28 c-28 36 -49
35 -49 -3z"/>
</g>
</svg>
